<svg xmlns="http://www.w3.org/2000/svg" width="660" height="100%" viewBox="0 0 382 226" fill="none" class="max-w-full"><path fill-rule="evenodd" clip-rule="evenodd" d="M378.229 -155.855C357.086 -98.3653 241.194 -118.296 224.14 -59.4644C205.75 3.97798 320.817 60.3939 297.616 122.239C279.58 170.316 195.226 127.989 147.101 145.894C101.6 162.823 72.2747 237.06 25.6835 223.415C-28.3651 207.584 -26.4174 123.839 -65.768 83.5476C-89.6211 59.1245 -152.15 71.3571 -155.959 37.4315C-161.438 -11.3719 -63.8256 -45.7942 -85.2509 -89.9841C-111.895 -144.938 -252.486 -99.7135 -252.064 -160.785C-251.665 -218.471 -113.069 -145.705 -84.5189 -195.832C-54.9964 -247.667 -151.642 -307.862 -135.576 -365.31C-124.534 -404.794 -63.2363 -402.191 -23.736 -413.172C17.7654 -424.708 67.7929 -456.733 102.747 -431.561C144.85 -401.242 111.793 -317.704 152.861 -285.997C193.229 -254.831 259.711 -301.781 303.876 -276.278C345.181 -252.425 394.692 -200.62 378.229 -155.855Z" fill="currentColor" fill-opacity="0.13"></path></svg>