<svg width="673" height="100%" viewBox="0 0 322 267" fill="none" xmlns="http://www.w3.org/2000/svg" class="max-w-full"><g clip-path="url(#clip0_19591_66474)"><path d="M-287.249 -70.9633V-38.676H-317V-37.0512H-287.249V-4.79668H-317V-3.17192H-287.249V29.0224H-317V30.6472H-287.249V62.94H-317V64.5648H-287.249V96.8959H-317V98.5206H-287.249V130.704H-317V132.329H-287.249V164.633H-317V166.257H-287.249V198.517H-317V200.142H-287.249V232.336H-317V233.961H-287.249V266.248H-317V267.873H-287.249V300.122H-317V301.747H-287.249V333.98H-317V335.604H-287.249V362H-285.596V335.604H-251.574V362H-249.921V335.604H-215.692V362H-214.038V335.604H-180.143V362H-178.489V335.604H-144.419V362H-142.765V335.604H-108.634V362H-106.981V335.604H-73.009V362H-71.372V335.604H-37.4218V362H-35.7848V335.604H-1.87845V362H-0.241455V335.604H33.9113V362H35.5483V335.604H69.8215V362H71.4585V335.604H105.699V362H107.336V335.604H141.543V362H143.18V335.604H177.547V362H179.184V335.604H212.581V362H214.218V335.604H248.491V362H250.128V335.604L284.094 335.588V361.984H285.731V335.588L319.819 335.604V362H321.456V335.604H356.156V333.98H321.456V301.747H356.156V300.122H321.456V267.873H356.156V266.248H321.456V233.961H356.156V232.336H321.456V200.142H356.156V198.517H321.456V166.257H356.156V164.633H321.456V132.329H356.156V130.704H321.456V98.5206H356.156V96.8959H321.456V64.5648H356.156V62.94H321.456V30.6472H356.156V29.0224H321.456V-3.17192H356.156V-4.79668H321.456V-37.0512H356.156V-38.676H321.456V-70.9633H356.156V-72.5881H321.456V-98.9836H319.819V-72.5881L285.731 -72.6045V-99H284.094V-72.6045L250.128 -72.5881V-98.9836H248.491V-72.5881H214.218V-98.9836H212.581V-72.5881H179.184V-98.9836H177.547V-72.5881H143.18V-98.9836H141.543V-72.5881H107.336V-98.9836H105.699V-72.5881H71.4585V-98.9836H69.8215V-72.5881H35.5483V-98.9836H33.9113V-72.5881H-0.241455V-98.9836H-1.87845V-72.5881H-35.7848V-98.9836H-37.4218V-72.5881H-71.372V-98.9836H-73.009V-72.5881H-106.981V-98.9836H-108.634V-72.5881H-142.765V-98.9836H-144.419V-72.5881H-178.489V-98.9836H-180.143V-72.5881H-214.038V-98.9836H-215.692V-72.5881H-249.921V-98.9836H-251.574V-72.5881H-285.596V-98.9836H-287.249V-72.5881H-317V-70.9633H-287.249ZM319.791 301.753V333.985L285.704 333.969V301.736L319.791 301.753ZM284.067 301.736V333.969L250.101 333.985V301.753L284.067 301.736ZM248.463 301.753V333.985H214.19V301.753H248.463ZM212.553 301.753V333.985H179.156V301.753H212.553ZM177.519 301.753V333.985H143.153V301.753H177.519ZM141.521 301.753V333.985H107.314V301.753H141.521ZM105.677 301.753V333.985H71.4366V301.753H105.677ZM69.7996 301.753V333.985H35.5264V301.753H69.7996ZM33.8948 301.753V333.985H-0.257874V301.753H33.8948ZM-1.8949 301.753V333.985H-35.8012V301.753H-1.8949ZM-37.4382 301.753V333.985H-71.3884V301.753H-37.4382ZM-73.0254 301.753V333.985H-106.997V301.753H-73.0254ZM-108.651 301.753V333.985H-142.782V301.753H-108.651ZM-144.43 301.753V333.985H-178.5V301.753H-144.43ZM-180.148 301.753V333.985H-214.044V301.753H-180.148ZM-215.697 301.753V333.985H-249.926V301.753H-215.697ZM-251.574 301.753V333.985H-285.596V301.753H-251.574ZM319.791 267.873V300.122L285.704 300.106V267.857L319.791 267.873ZM284.067 267.857V300.106L250.101 300.122V267.873L284.067 267.857ZM248.463 267.873V300.122H214.19V267.873H248.463ZM212.553 267.873V300.122H179.156V267.873H212.553ZM177.519 267.873V300.122H143.153V267.873H177.519ZM141.521 267.873V300.122H107.314V267.873H141.521ZM105.677 267.873V300.122H71.4366V267.873H105.677ZM69.7996 267.873V300.122H35.5264V267.873H69.7996ZM33.8948 267.873V300.122H-0.257874V267.873H33.8948ZM-1.8949 267.873V300.122H-35.8012V267.873H-1.8949ZM-37.4382 267.873V300.122H-71.3884V267.873H-37.4382ZM-73.0254 267.873V300.122H-106.997V267.873H-73.0254ZM-108.651 267.873V300.122H-142.782V267.873H-108.651ZM-144.43 267.873V300.122H-178.5V267.873H-144.43ZM-180.148 267.873V300.122H-214.044V267.873H-180.148ZM-215.697 267.873V300.122H-249.926V267.873H-215.697ZM-251.574 267.873V300.122H-285.596V267.873H-251.574ZM319.791 233.961V266.248L285.704 266.232V233.945L319.791 233.961ZM284.067 233.945V266.232L250.101 266.248V233.961L284.067 233.945ZM248.463 233.961V266.248H214.19V233.961H248.463ZM212.553 233.961V266.248H179.156V233.961H212.553ZM177.519 233.961V266.248H143.153V233.961H177.519ZM141.521 233.961V266.248H107.314V233.961H141.521ZM105.677 233.961V266.248H71.4366V233.961H105.677ZM69.7996 233.961V266.248H35.5264V233.961H69.7996ZM33.8948 233.961V266.248H-0.257874V233.961H33.8948ZM-1.8949 233.961V266.248H-35.8012V233.961H-1.8949ZM-37.4382 233.961V266.248H-71.3884V233.961H-37.4382ZM-73.0254 233.961V266.248H-106.997V233.961H-73.0254ZM-108.651 233.961V266.248H-142.782V233.961H-108.651ZM-144.43 233.961V266.248H-178.5V233.961H-144.43ZM-180.148 233.961V266.248H-214.044V233.961H-180.148ZM-215.697 233.961V266.248H-249.926V233.961H-215.697ZM-251.574 233.961V266.248H-285.596V233.961H-251.574ZM319.791 200.142V232.336L285.704 232.32V200.126L319.791 200.142ZM284.067 200.126V232.32L250.101 232.336V200.142L284.067 200.126ZM248.463 200.142V232.336H214.19V200.142H248.463ZM212.553 200.142V232.336H179.156V200.142H212.553ZM177.519 200.142V232.336H143.153V200.142H177.519ZM141.521 200.142V232.336H107.314V200.142H141.521ZM105.677 200.142V232.336H71.4366V200.142H105.677ZM69.7996 200.142V232.336H35.5264V200.142H69.7996ZM33.8948 200.142V232.336H-0.257874V200.142H33.8948ZM-1.8949 200.142V232.336H-35.8012V200.142H-1.8949ZM-37.4382 200.142V232.336H-71.3884V200.142H-37.4382ZM-73.0254 200.142V232.336H-106.997V200.142H-73.0254ZM-108.651 200.142V232.336H-142.782V200.142H-108.651ZM-144.43 200.142V232.336H-178.5V200.142H-144.43ZM-180.148 200.142V232.336H-214.044V200.142H-180.148ZM-215.697 200.142V232.336H-249.926V200.142H-215.697ZM-251.574 200.142V232.336H-285.596V200.142H-251.574ZM319.791 166.257V198.517L285.704 198.501V166.241L319.791 166.257ZM284.067 166.241V198.501L250.101 198.517V166.257L284.067 166.241ZM248.463 166.257V198.517H214.19V166.257H248.463ZM212.553 166.257V198.517H179.156V166.257H212.553ZM177.519 166.257V198.517H143.153V166.257H177.519ZM141.521 166.257V198.517H107.314V166.257H141.521ZM105.677 166.257V198.517H71.4366V166.257H105.677ZM69.7996 166.257V198.517H35.5264V166.257H69.7996ZM33.8948 166.257V198.517H-0.257874V166.257H33.8948ZM-1.8949 166.257V198.517H-35.8012V166.257H-1.8949ZM-37.4382 166.257V198.517H-71.3884V166.257H-37.4382ZM-73.0254 166.257V198.517H-106.997V166.257H-73.0254ZM-108.651 166.257V198.517H-142.782V166.257H-108.651ZM-144.43 166.257V198.517H-178.5V166.257H-144.43ZM-180.148 166.257V198.517H-214.044V166.257H-180.148ZM-215.697 166.257V198.517H-249.926V166.257H-215.697ZM-251.574 166.257V198.517H-285.596V166.257H-251.574ZM319.791 132.329V164.633L285.704 164.616V132.312L319.791 132.329ZM284.067 132.312V164.616L250.101 164.633V132.329L284.067 132.312ZM248.463 132.329V164.633H214.19V132.329H248.463ZM212.553 132.329V164.633H179.156V132.329H212.553ZM177.519 132.329V164.633H143.153V132.329H177.519ZM141.521 132.329V164.633H107.314V132.329H141.521ZM105.677 132.329V164.633H71.4366V132.329H105.677ZM69.7996 132.329V164.633H35.5264V132.329H69.7996ZM33.8948 132.329V164.633H-0.257874V132.329H33.8948ZM-1.8949 132.329V164.633H-35.8012V132.329H-1.8949ZM-37.4382 132.329V164.633H-71.3884V132.329H-37.4382ZM-73.0254 132.329V164.633H-106.997V132.329H-73.0254ZM-108.651 132.329V164.633H-142.782V132.329H-108.651ZM-144.43 132.329V164.633H-178.5V132.329H-144.43ZM-180.148 132.329V164.633H-214.044V132.329H-180.148ZM-215.697 132.329V164.633H-249.926V132.329H-215.697ZM-251.574 132.329V164.633H-285.596V132.329H-251.574ZM319.791 98.5206V130.704L285.704 130.688V98.5042L319.791 98.5206ZM284.067 98.5042V130.688L250.101 130.704V98.5206L284.067 98.5042ZM248.463 98.5206V130.704H214.19V98.5206H248.463ZM212.553 98.5206V130.704H179.156V98.5206H212.553ZM177.519 98.5206V130.704H143.153V98.5206H177.519ZM141.521 98.5206V130.704H107.314V98.5206H141.521ZM105.677 98.5206V130.704H71.4366V98.5206H105.677ZM69.7996 98.5206V130.704H35.5264V98.5206H69.7996ZM33.8948 98.5206V130.704H-0.257874V98.5206H33.8948ZM-1.8949 98.5206V130.704H-35.8012V98.5206H-1.8949ZM-37.4382 98.5206V130.704H-71.3884V98.5206H-37.4382ZM-73.0254 98.5206V130.704H-106.997V98.5206H-73.0254ZM-108.651 98.5206V130.704H-142.782V98.5206H-108.651ZM-144.43 98.5206V130.704H-178.5V98.5206H-144.43ZM-180.148 98.5206V130.704H-214.044V98.5206H-180.148ZM-215.697 98.5206V130.704H-249.926V98.5206H-215.697ZM-251.574 98.5206V130.704H-285.596V98.5206H-251.574ZM319.791 64.5648V96.8959L285.704 96.8795V64.5483L319.791 64.5648ZM284.067 64.5483V96.8795L250.101 96.8959V64.5648L284.067 64.5483ZM248.463 64.5648V96.8959H214.19V64.5648H248.463ZM212.553 64.5648V96.8959H179.156V64.5648H212.553ZM177.519 64.5648V96.8959H143.153V64.5648H177.519ZM141.521 64.5648V96.8959H107.314V64.5648H141.521ZM105.677 64.5648V96.8959H71.4366V64.5648H105.677ZM69.7996 64.5648V96.8959H35.5264V64.5648H69.7996ZM33.8948 64.5648V96.8959H-0.257874V64.5648H33.8948ZM-1.8949 64.5648V96.8959H-35.8012V64.5648H-1.8949ZM-37.4382 64.5648V96.8959H-71.3884V64.5648H-37.4382ZM-73.0254 64.5648V96.8959H-106.997V64.5648H-73.0254ZM-108.651 64.5648V96.8959H-142.782V64.5648H-108.651ZM-144.43 64.5648V96.8959H-178.5V64.5648H-144.43ZM-180.148 64.5648V96.8959H-214.044V64.5648H-180.148ZM-215.697 64.5648V96.8959H-249.926V64.5648H-215.697ZM-251.574 64.5648V96.8959H-285.596V64.5648H-251.574ZM319.791 30.6527V62.9455L285.704 62.929V30.6417L319.791 30.6581V30.6527ZM284.067 62.9236L250.101 62.94V30.6472L284.067 30.6308V62.9236ZM248.463 30.6527V62.9455H214.19V30.6527H248.463ZM212.553 30.6527V62.9455H179.156V30.6527H212.553ZM177.519 30.6527V62.9455H143.153V30.6527H177.519ZM141.521 30.6527V62.9455H107.314V30.6527H141.521ZM105.677 30.6527V62.9455H71.4366V30.6527H105.677ZM69.7996 30.6527V62.9455H35.5264V30.6527H69.7996ZM33.8948 30.6527V62.9455H-0.257874V30.6527H33.8948ZM-1.8949 30.6527V62.9455H-35.8012V30.6527H-1.8949ZM-37.4382 30.6527V62.9455H-71.3884V30.6527H-37.4382ZM-73.0254 30.6527V62.9455H-106.997V30.6527H-73.0254ZM-108.651 30.6527V62.9455H-142.782V30.6527H-108.651ZM-144.43 30.6527V62.9455H-178.5V30.6527H-144.43ZM-180.148 30.6527V62.9455H-214.044V30.6527H-180.148ZM-215.697 30.6527V62.9455H-249.926V30.6527H-215.697ZM-251.574 30.6527V62.9455H-285.596V30.6527H-251.574ZM319.791 -3.16645V29.0279L285.704 29.0115V-3.18286L319.791 -3.16645ZM284.067 -3.18286V29.0115L250.101 29.0279V-3.16645L284.067 -3.18286ZM248.463 -3.16645V29.0279H214.19V-3.16645H248.463ZM212.553 -3.16645V29.0279H179.156V-3.16645H212.553ZM177.519 -3.16645V29.0279H143.153V-3.16645H177.519ZM141.521 -3.16645V29.0279H107.314V-3.16645H141.521ZM105.677 -3.16645V29.0279H71.4366V-3.16645H105.677ZM69.7996 -3.16645V29.0279H35.5264V-3.16645H69.7996ZM33.8948 -3.16645V29.0279H-0.257874V-3.16645H33.8948ZM-1.8949 -3.16645V29.0279H-35.8012V-3.16645H-1.8949ZM-37.4382 -3.16645V29.0279H-71.3884V-3.16645H-37.4382ZM-73.0254 -3.16645V29.0279H-106.997V-3.16645H-73.0254ZM-108.651 -3.16645V29.0279H-142.782V-3.16645H-108.651ZM-144.43 -3.16645V29.0279H-178.5V-3.16645H-144.43ZM-180.148 -3.16645V29.0279H-214.044V-3.16645H-180.148ZM-215.697 -3.16645V29.0279H-249.926V-3.16645H-215.697ZM-251.574 -3.16645V29.0279H-285.596V-3.16645H-251.574ZM319.791 -37.0512V-4.79668L285.704 -4.8131V-37.0676L319.791 -37.0512ZM284.067 -37.0676V-4.8131L250.101 -4.79668V-37.0512L284.067 -37.0676ZM248.463 -37.0512V-4.79668H214.19V-37.0512H248.463ZM212.553 -37.0512V-4.79668H179.156V-37.0512H212.553ZM177.519 -37.0512V-4.79668H143.153V-37.0512H177.519ZM141.521 -37.0512V-4.79668H107.314V-37.0512H141.521ZM105.677 -37.0512V-4.79668H71.4366V-37.0512H105.677ZM69.7996 -37.0512V-4.79668H35.5264V-37.0512H69.7996ZM33.8948 -37.0512V-4.79668H-0.257874V-37.0512H33.8948ZM-1.8949 -37.0512V-4.79668H-35.8012V-37.0512H-1.8949ZM-37.4382 -37.0512V-4.79668H-71.3884V-37.0512H-37.4382ZM-73.0254 -37.0512V-4.79668H-106.997V-37.0512H-73.0254ZM-108.651 -37.0512V-4.79668H-142.782V-37.0512H-108.651ZM-144.43 -37.0512V-4.79668H-178.5V-37.0512H-144.43ZM-180.148 -37.0512V-4.79668H-214.044V-37.0512H-180.148ZM-215.697 -37.0512V-4.79668H-249.926V-37.0512H-215.697ZM-251.574 -37.0512V-4.79668H-285.596V-37.0512H-251.574ZM319.791 -38.676L285.704 -38.6924V-70.9852L319.791 -70.9688V-38.676ZM284.067 -70.9797V-38.6869L250.101 -38.6705V-70.9578L284.067 -70.9742V-70.9797ZM248.463 -70.9633V-38.676H214.19V-70.9633H248.463ZM212.553 -70.9633V-38.676H179.156V-70.9633H212.553ZM177.519 -70.9633V-38.676H143.153V-70.9633H177.519ZM141.521 -70.9633V-38.676H107.314V-70.9633H141.521ZM105.677 -70.9633V-38.676H71.4366V-70.9633H105.677ZM69.7996 -70.9633V-38.676H35.5264V-70.9633H69.7996ZM33.8948 -70.9633V-38.676H-0.257874V-70.9633H33.8948ZM-1.8949 -70.9633V-38.676H-35.8012V-70.9633H-1.8949ZM-37.4382 -70.9633V-38.676H-71.3884V-70.9633H-37.4382ZM-73.0254 -70.9633V-38.676H-106.997V-70.9633H-73.0254ZM-108.651 -70.9633V-38.676H-142.782V-70.9633H-108.651ZM-144.43 -70.9633V-38.676H-178.5V-70.9633H-144.43ZM-180.148 -70.9633V-38.676H-214.044V-70.9633H-180.148ZM-215.697 -70.9633V-38.676H-249.926V-70.9633H-215.697ZM-251.574 -70.9633V-38.676H-285.596V-70.9633H-251.574Z" fill="white"></path></g><defs><clipPath id="clip0_19591_66474"><rect width="638.062" height="461" fill="white" transform="translate(-317 -99)"></rect></clipPath></defs></svg>